<svg width="40" height="40" viewBox="0 0 40 40" fill="none" xmlns="http://www.w3.org/2000/svg">
<circle cx="20" cy="20" r="20" fill="#3F84AB"/>
<path d="M13.0752 27.2496C12.896 27.2496 12.7232 27.2368 12.5568 27.2112C12.4032 27.1984 12.2624 27.1792 12.1344 27.1536C12.0064 27.128 11.9104 27.1088 11.8464 27.096L12.0384 25.7136C12.1536 25.7264 12.3328 25.752 12.576 25.7904C12.8192 25.8288 13.088 25.848 13.3824 25.848C13.6512 25.848 13.8752 25.7904 14.0544 25.6752C14.2336 25.5472 14.368 25.2592 14.4576 24.8112C14.56 24.3632 14.6112 23.6656 14.6112 22.7184V13.656H16.224V22.4688C16.224 23.6592 16.0832 24.6064 15.8016 25.3104C15.5328 26.0016 15.1616 26.5008 14.688 26.808C14.2144 27.1024 13.6768 27.2496 13.0752 27.2496ZM24.4302 27.2496C23.7646 27.2496 23.131 27.16 22.5294 26.9808C21.9278 26.7888 21.3966 26.4432 20.9358 25.944C20.475 25.4448 20.1102 24.7408 19.8414 23.832C19.5854 22.9104 19.4574 21.7264 19.4574 20.28C19.4574 18.8592 19.579 17.7008 19.8222 16.8048C20.0782 15.896 20.4366 15.1984 20.8974 14.712C21.3582 14.2128 21.9086 13.8736 22.5486 13.6944C23.1886 13.5024 23.899 13.4064 24.6798 13.4064C25.0894 13.4064 25.5054 13.4256 25.9278 13.464C26.3502 13.4896 26.7406 13.528 27.099 13.5792C27.4702 13.6304 27.7582 13.6816 27.963 13.7328L27.771 15.1152C27.5278 15.0896 27.1374 15.0448 26.5998 14.9808C26.075 14.904 25.3966 14.8656 24.5646 14.8656C23.9246 14.8656 23.4062 14.904 23.0094 14.9808C22.6254 15.0448 22.3374 15.1792 22.1454 15.384C21.9022 15.6272 21.6782 16.1328 21.4734 16.9008C21.2814 17.6688 21.1854 18.7824 21.1854 20.2416C21.1854 21.3552 21.243 22.2576 21.3582 22.9488C21.4862 23.64 21.627 24.1648 21.7806 24.5232C21.9342 24.8688 22.0686 25.1056 22.1838 25.2336C22.3374 25.4 22.587 25.5472 22.9326 25.6752C23.291 25.7904 23.8158 25.848 24.507 25.848C24.955 25.848 25.3454 25.8224 25.6782 25.7712C26.0238 25.72 26.299 25.6496 26.5038 25.56V20.6064L27.2334 21.3744L24.4686 21.24V20.0496H28.0398V26.5008C28.0398 26.5008 27.8862 26.5648 27.579 26.6928C27.2846 26.808 26.8622 26.9296 26.3118 27.0576C25.7742 27.1856 25.147 27.2496 24.4302 27.2496Z" fill="white"/>
</svg>
