<svg width="25" height="25" viewBox="0 0 25 25" fill="none" xmlns="http://www.w3.org/2000/svg">
<g clip-path="url(#clip0_40_10)">
<path d="M17.5538 0H18.2951C18.8021 0.0642361 19.2483 0.342014 19.6163 0.684028C20.9878 1.98958 22.3385 3.36111 23.2726 5.02604C24.2969 6.77083 24.8628 8.76215 25 10.776V12.3038C24.8281 15.2049 23.717 18.0521 21.8281 20.2656C19.5243 23.0312 16.0538 24.717 12.4809 25H10.8455C7.67188 24.8507 4.63542 23.4462 2.34549 21.2674C1.44792 20.3854 0.291667 19.5903 0 18.2882V17.6892C0.140625 16.526 1.24479 15.5312 2.4375 15.6424C3.44271 15.7431 4.36111 16.2448 5.37153 16.3455C8.5191 16.6806 11.7587 15.342 13.8403 12.974C15.6944 10.8906 16.6806 8.00694 16.3281 5.22569C16.2014 4.05556 15.4514 2.97049 15.6944 1.76736C15.9045 0.878472 16.6875 0.217014 17.5538 0V0ZM17.2396 2.10764C17.1476 2.63889 17.4444 3.12847 17.559 3.63368C18.3038 5.97917 17.9705 8.55208 17.0469 10.7969C15.7812 13.7865 13.224 16.2153 10.1562 17.2899C8.07465 18.0174 5.75174 18.2326 3.62674 17.5642C3.125 17.4514 2.6441 17.1424 2.11806 17.2274C1.57639 17.342 1.39931 18.1337 1.78646 18.5017C3.06424 19.7917 4.31771 21.1632 5.95486 22.0035C8.69965 23.5365 12.0469 23.7865 15.0503 22.9479L15.0434 22.9132C16.6076 22.5017 18.0139 21.6372 19.2691 20.6337C21.8576 18.4132 23.4774 15.0538 23.4149 11.6267C23.4722 9.14583 22.6545 6.67187 21.1979 4.67014C20.4549 3.63021 19.4844 2.78646 18.6007 1.87153C18.2535 1.39931 17.375 1.50694 17.2396 2.10764Z" fill="black"/>
<path d="M17.2394 2.10758C17.3748 1.50689 18.2532 1.39925 18.6005 1.87147C19.4841 2.7864 20.4546 3.63015 21.1977 4.67009C22.6543 6.67182 23.472 9.14578 23.4147 11.6267C23.4772 15.0538 21.8574 18.4131 19.2689 20.6336C18.7984 20.1423 18.2585 19.6423 17.5519 19.5572C16.4234 19.3506 15.2654 20.125 14.9477 21.21C14.7463 21.769 14.9043 22.3593 15.0432 22.9131L15.0501 22.9479C12.0466 23.7864 8.69942 23.5364 5.95463 22.0034C4.31748 21.1631 3.06401 19.7916 1.78623 18.5017C1.39908 18.1336 1.57616 17.342 2.11783 17.2274C2.64387 17.1423 3.12477 17.4513 3.62651 17.5642C5.75151 18.2326 8.07442 18.0173 10.156 17.2899C13.2237 16.2152 15.781 13.7864 17.0466 10.7968C17.9703 8.55203 18.3036 5.97911 17.5588 3.63363C17.4442 3.12842 17.1473 2.63883 17.2394 2.10758ZM19.8244 5.46696C18.9199 5.49995 18.4407 6.69613 19.0085 7.37147C19.4755 8.00168 20.5692 7.91141 20.9373 7.2187C21.446 6.46349 20.7168 5.34891 19.8244 5.46696ZM19.663 8.73606C18.5397 9.19613 18.4598 10.967 19.5449 11.5156C20.5362 12.1458 21.9963 11.2517 21.8487 10.0781C21.8887 9.00863 20.597 8.24995 19.663 8.73606ZM9.24109 19.6545C8.53449 19.9895 8.36783 21.0625 8.98762 21.5677C9.61609 22.2066 10.8991 21.75 10.9095 20.8298C11.0692 19.9513 10.0119 19.2152 9.24109 19.6545Z" fill="#FFC83D"/>
<path d="M19.8246 5.46707C20.717 5.34901 21.4462 6.4636 20.9375 7.2188C20.5694 7.91151 19.4757 8.00179 19.0087 7.37158C18.441 6.69623 18.9201 5.50005 19.8246 5.46707Z" fill="#EBA300"/>
<path d="M19.6632 8.73617C20.5973 8.25005 21.8889 9.00874 21.849 10.0782C21.9966 11.2518 20.5365 12.1459 19.5452 11.5157C18.4601 10.9671 18.54 9.19624 19.6632 8.73617Z" fill="#EBA300"/>
<path d="M9.2411 19.6546C10.0119 19.2153 11.0692 19.9514 10.9095 20.8299C10.8991 21.75 9.6161 22.2066 8.98763 21.5678C8.36784 21.0625 8.53451 19.9896 9.2411 19.6546Z" fill="#EBA300"/>
<path d="M14.9477 21.2101C15.2654 20.1251 16.4234 19.3508 17.5519 19.5574C18.2585 19.6424 18.7984 20.1424 19.2689 20.6337C18.0137 21.6372 16.6074 22.5018 15.0432 22.9133C14.9043 22.3594 14.7463 21.7692 14.9477 21.2101Z" fill="#EBA300"/>
</g>
<defs>
<clipPath id="clip0_40_10">
<rect width="25" height="25" fill="white"/>
</clipPath>
</defs>
</svg>
