<svg width="15" height="12" viewBox="0 0 15 12" fill="none" xmlns="http://www.w3.org/2000/svg">
<path fill-rule="evenodd" clip-rule="evenodd" d="M3.11555 0C2.25967 0 1.62636 0.75231 1.65472 1.56817C1.68193 2.35199 1.64657 3.36715 1.3921 4.19502C1.13672 5.0252 0.705117 5.55129 0 5.61881V6.38119C0.705117 6.44886 1.13672 6.97468 1.39207 7.80498C1.64657 8.63285 1.6819 9.64801 1.65469 10.4318C1.62633 11.2476 2.25964 12 3.11566 12H11.8856C12.7415 12 13.3747 11.2477 13.3463 10.4318C13.3191 9.64801 13.3545 8.63285 13.6089 7.80498C13.8643 6.97468 14.2949 6.44865 15 6.38119V5.61881C14.2949 5.55114 13.8643 5.02532 13.6089 4.19502C13.3544 3.36727 13.3191 2.35199 13.3463 1.56817C13.3747 0.752427 12.7415 0 11.8856 0H3.11543H3.11555ZM10.1695 7.38679C10.1695 8.51019 9.3351 9.19151 7.95038 9.19151H5.59321C5.52578 9.19151 5.46112 9.16461 5.41344 9.11672C5.36576 9.06884 5.33897 9.0039 5.33897 8.93618V3.06384C5.33897 2.99613 5.36576 2.93119 5.41344 2.88331C5.46112 2.83542 5.52578 2.80852 5.59321 2.80852H7.93696C9.09158 2.80852 9.84935 3.43662 9.84935 4.40094C9.84935 5.07778 9.33958 5.68372 8.69016 5.78987V5.82518C9.57422 5.92256 10.1695 6.53747 10.1695 7.38679ZM7.69336 3.61788H6.34934V5.5244H7.48134C8.35644 5.5244 8.83895 5.17052 8.83895 4.53798C8.83887 3.9452 8.42402 3.61788 7.69336 3.61788ZM6.34934 6.28086V8.38188H7.74281C8.65394 8.38188 9.13655 8.01473 9.13655 7.32474C9.13655 6.63474 8.64041 6.28074 7.68422 6.28074H6.34934V6.28086Z" fill="#7952B3"/>
</svg>
