<svg width="12" height="12" viewBox="0 0 12 12" fill="none" xmlns="http://www.w3.org/2000/svg">
<path d="M12 0L10.9068 10.7987L5.99266 12L1.09207 10.8004L0 0H12Z" fill="#264DE4"/>
<path d="M9.97084 10.1111L10.9051 0.883095H6V11.0818L9.97084 10.1111Z" fill="#2965F1"/>
<path d="M2.50354 4.88882L2.63818 6.21344H5.99999V4.88882H2.50354Z" fill="#EBEBEB"/>
<path d="M6.00002 2.20773H5.99483H2.23303L2.36959 3.53237H6.00002V2.20773Z" fill="#EBEBEB"/>
<path d="M6 9.70717V8.329L5.99342 8.33054L4.32032 7.93219L4.21337 6.87574H3.40038H2.70532L2.91579 8.9556L5.99309 9.70886L6 9.70717Z" fill="#EBEBEB"/>
<path d="M7.8447 6.21342L7.67032 7.93137L5.99481 8.33012V9.70823L9.07456 8.95562L9.09715 8.73182L9.45017 5.24451L9.48682 4.88881L9.75803 2.20773H5.99481V3.53237H8.11167L7.97497 4.88881H5.99481V6.21342H7.8447Z" fill="white"/>
</svg>
