<svg width="8" height="12" viewBox="0 0 8 12" fill="none" xmlns="http://www.w3.org/2000/svg">
<path d="M2 12C3.104 12 4 11.104 4 10V8.00001H2C0.896 8.00001 0 8.89601 0 10C0 11.104 0.896 12 2 12Z" fill="#0ACF83"/>
<path d="M0 5.99998C0 4.89598 0.896 3.99998 2 3.99998H4V7.99998H2C0.896 7.99998 0 7.10398 0 5.99998Z" fill="#A259FF"/>
<path d="M0 2C0 0.895999 0.896 0 2 0H4V4H2C0.896 4 0 3.104 0 2Z" fill="#F24E1E"/>
<path d="M4 0H6C7.104 0 8.00001 0.895999 8.00001 2C8.00001 3.104 7.104 4 6 4H4V0Z" fill="#FF7262"/>
<path d="M8.00001 5.99998C8.00001 7.10398 7.104 7.99998 6 7.99998C4.896 7.99998 4 7.10398 4 5.99998C4 4.89598 4.896 3.99998 6 3.99998C7.104 3.99998 8.00001 4.89598 8.00001 5.99998Z" fill="#1ABCFE"/>
</svg>
