<svg width="12" height="12" viewBox="0 0 12 12" fill="none" xmlns="http://www.w3.org/2000/svg">
<path d="M11.7737 5.46531L6.53439 0.226183C6.23284 -0.0755571 5.74346 -0.0755571 5.44154 0.226183L4.35357 1.31417L5.73371 2.69434C6.05443 2.58596 6.42222 2.65867 6.67787 2.91433C6.93475 3.17163 7.00694 3.54256 6.89594 3.86431L8.22602 5.19446C8.54781 5.0836 8.91911 5.15532 9.17613 5.41276C9.53533 5.77183 9.53533 6.3538 9.17613 6.7131C8.81683 7.07245 8.23487 7.07245 7.87539 6.7131C7.6052 6.44263 7.53845 6.04582 7.67523 5.71296L6.43482 4.47253L6.43468 7.73682C6.5246 7.78128 6.60673 7.84001 6.67787 7.91073C7.03708 8.2698 7.03708 8.85181 6.67787 9.2114C6.31857 9.57056 5.73634 9.57056 5.37756 9.2114C5.01835 8.85181 5.01835 8.26985 5.37756 7.91078C5.46364 7.82465 5.56594 7.75645 5.67854 7.7101V4.41539C5.56577 4.36935 5.46342 4.30111 5.37756 4.21471C5.1054 3.94292 5.03996 3.54359 5.17942 3.20941L3.81891 1.84874L0.226407 5.44108C-0.0754689 5.7431 -0.0754689 6.23253 0.226407 6.53432L5.46582 11.7735C5.76746 12.0753 6.25675 12.0753 6.55876 11.7735L11.7737 6.55864C12.0754 6.25676 12.0754 5.76705 11.7737 5.46531" fill="#DE4C36"/>
</svg>
