<svg width="12" height="12" viewBox="0 0 12 12" fill="none" xmlns="http://www.w3.org/2000/svg">
<path d="M12 0H0V12H12V0Z" fill="#F7DF1E"/>
<path d="M8.06097 9.37505C8.30269 9.76972 8.61716 10.0598 9.17335 10.0598C9.64059 10.0598 9.93907 9.82629 9.93907 9.50362C9.93907 9.11695 9.6324 8.98 9.11811 8.75505L8.83621 8.6341C8.02249 8.28743 7.48192 7.85314 7.48192 6.93505C7.48192 6.08934 8.1263 5.44553 9.13335 5.44553C9.8503 5.44553 10.3657 5.69505 10.7372 6.34838L9.85907 6.91219C9.66573 6.56553 9.45716 6.42895 9.13335 6.42895C8.80307 6.42895 8.59373 6.63848 8.59373 6.91219C8.59373 7.25048 8.80326 7.38743 9.28707 7.59695L9.56897 7.71772C10.5271 8.12857 11.068 8.54743 11.068 9.48914C11.068 10.5044 10.2705 11.0606 9.19945 11.0606C8.15221 11.0606 7.47564 10.5615 7.14459 9.90743L8.06097 9.37505ZM4.07754 9.47276C4.25469 9.78705 4.41583 10.0528 4.80326 10.0528C5.17373 10.0528 5.40745 9.90781 5.40745 9.34419V5.50991H6.53507V9.35943C6.53507 10.527 5.85049 11.0585 4.85126 11.0585C3.9484 11.0585 3.42554 10.5912 3.15964 10.0285L4.07754 9.47276Z" fill="black"/>
</svg>
