<svg width="12" height="12" viewBox="0 0 12 12" fill="none" xmlns="http://www.w3.org/2000/svg">
<path d="M5.98982 8.93248C8.64468 12.5516 11.2428 7.92232 11.239 5.13842C11.2345 1.84705 7.89843 0.00748444 5.98767 0.00748444C2.92073 0.00743756 0 2.54211 0 6.0101C0 9.86482 3.34804 12 5.98767 12C5.39034 11.914 3.3997 11.4874 3.37298 6.90246C3.35494 3.8015 4.38454 2.56254 5.98336 3.10756C6.01917 3.12083 7.74688 3.80239 7.74688 6.02881C7.74688 8.24581 5.98982 8.93243 5.98982 8.93243V8.93248Z" fill="url(#paint0_linear_36_47)"/>
<path d="M5.98674 3.10502C4.23249 2.50038 2.08351 3.94624 2.08351 6.84217C2.08351 11.5708 5.58756 12 6.01234 12C9.07927 12 12 9.46525 12 5.9973C12 2.14259 8.65196 0.00743469 6.01234 0.00743469C6.74345 -0.0938152 9.95288 0.798683 9.95288 5.18515C9.95288 8.04574 7.55645 9.60301 5.99776 8.93767C5.96195 8.92441 4.23418 8.24284 4.23418 6.01643C4.23418 3.79938 5.98674 3.10502 5.98674 3.10502Z" fill="url(#paint1_linear_36_47)"/>
<defs>
<linearGradient id="paint0_linear_36_47" x1="1.77475" y1="1.77482" x2="10.7387" y2="9.64757" gradientUnits="userSpaceOnUse">
<stop/>
<stop offset="1" stop-color="white"/>
</linearGradient>
<linearGradient id="paint1_linear_36_47" x1="10.2285" y1="10.2284" x2="0.526402" y2="3.60292" gradientUnits="userSpaceOnUse">
<stop/>
<stop offset="1" stop-color="white"/>
</linearGradient>
</defs>
</svg>
