<svg width="7" height="15" viewBox="0 0 7 15" fill="none" xmlns="http://www.w3.org/2000/svg">
<path d="M3.45123 0.0409622L3.8671 0.792781C3.9606 0.931521 4.0619 1.05432 4.1812 1.16869C4.53099 1.50116 4.85703 1.85601 5.1571 2.2308C5.86176 3.12136 6.33705 4.11035 6.67647 5.17995C6.88003 5.83334 6.99057 6.50361 6.99885 7.18137C7.03294 9.20762 6.31124 10.9475 4.85615 12.3935C4.61947 12.6228 4.36377 12.8331 4.0916 13.0225C3.94746 13.0225 3.87928 12.9161 3.81987 12.8181C3.71168 12.6365 3.63967 12.437 3.60755 12.2299C3.55641 11.9848 3.52281 11.7396 3.53937 11.4865V11.3721C3.52768 11.3478 3.40058 0.0986142 3.45123 0.0409622Z" fill="#599636"/>
<path d="M3.45123 0.0161252C3.43419 -0.0166849 3.41714 0.00815706 3.4001 0.0240934C3.40838 0.188144 3.34897 0.334383 3.25595 0.47406C3.15369 0.6128 3.01831 0.719198 2.88244 0.833565C2.12763 1.46258 1.53352 2.22237 1.05775 3.07215C0.42468 4.21582 0.0984064 5.44151 0.00588107 6.73188C-0.0364858 7.19731 0.158791 8.83969 0.311215 9.31356C0.727091 10.5716 1.47411 11.6257 2.44173 12.5407C2.67938 12.761 2.93358 12.9653 3.19654 13.1617C3.273 13.1617 3.28128 13.0961 3.29881 13.0474C3.33233 12.943 3.35788 12.8365 3.37526 12.7286L3.5457 11.5034L3.45123 0.0161252Z" fill="#6CAC48"/>
<path d="M3.8671 13.5203C3.88415 13.3328 3.97765 13.1772 4.07942 13.022C3.97716 12.9813 3.90119 12.9002 3.84178 12.8097C3.79055 12.7241 3.74814 12.6338 3.71517 12.5402C3.59634 12.1971 3.57102 11.8371 3.53693 11.4865V11.2742C3.49457 11.307 3.4858 11.5845 3.4858 11.6257C3.46102 11.9963 3.40993 12.3648 3.33289 12.7286C3.30757 12.8758 3.29052 13.0225 3.19654 13.1533C3.19654 13.1697 3.19654 13.1861 3.20482 13.2105C3.35773 13.6435 3.39961 14.0846 3.42542 14.5341V14.6981C3.42542 14.8941 3.41714 14.8528 3.58612 14.9184C3.65429 14.9428 3.73026 14.9513 3.79844 15C3.84957 15 3.85785 14.9592 3.85785 14.9264L3.83253 14.6569V13.9051C3.82425 13.7738 3.84957 13.6435 3.86662 13.5207L3.8671 13.5203Z" fill="#C2BFBF"/>
</svg>
