<svg width="12" height="12" viewBox="0 0 12 12" fill="none" xmlns="http://www.w3.org/2000/svg">
<path d="M7.17628 7.76608L4.23323 7.15108C4.22091 7.17491 4.2072 7.198 4.19217 7.22022L6.87141 11.1286L7.03303 10.9671L7.48884 8.1326C7.4118 8.10005 7.34343 8.04996 7.28916 7.98632C7.2349 7.92268 7.19624 7.8473 7.17628 7.76608ZM6.10266 3.91886C5.99241 4.08799 5.80209 4.19992 5.58534 4.19992C5.55197 4.19992 5.51953 4.19655 5.48766 4.19149L4.14548 6.29153L7.73133 4.74841C7.7302 4.73397 7.72702 4.72047 7.72702 4.70566C7.72702 4.67547 7.73114 4.64622 7.73602 4.61735L6.10266 3.91886ZM6.20016 3.53617L7.93758 4.27905C7.99294 4.23577 8.05626 4.20379 8.12395 4.18492L8.40952 2.4093L7.32159 1.32138L6.09703 3.23753C6.15705 3.32631 6.19261 3.42928 6.20016 3.53617ZM9.8407 3.84049L8.75039 2.74999L8.51339 4.22224C8.57347 4.25245 8.62744 4.29351 8.67258 4.34336L9.8407 3.84049ZM7.22841 7.37828C7.27107 7.30082 7.33237 7.23522 7.40676 7.18739C7.48114 7.13956 7.56627 7.11102 7.65445 7.10435L7.96758 5.15678C7.94302 5.14047 7.92108 5.12097 7.89952 5.10091L4.29305 6.65303C4.30223 6.69072 4.30861 6.72916 4.31161 6.7691L7.22841 7.37828ZM10.1377 4.13767L8.8762 4.68049L11.9887 6.01122L12 5.99997L10.1377 4.13767ZM7.88339 8.13846L7.50427 10.4955L9.7057 8.29408L8.12002 7.96296C8.0592 8.04253 7.97719 8.10336 7.88339 8.13846ZM3.60436 7.53246C3.52467 7.53246 3.44836 7.51877 3.37692 7.49453L2.64567 8.63889L2.36311 8.35652L3.05573 7.27277C3.0386 7.25151 3.02264 7.22934 3.00792 7.20635L1.75317 7.74658L1.45575 7.44916L2.82919 6.85797L0.346172 6.33972L0.0065625 5.99997L0.114 5.89253L2.97736 6.49028C3.01029 6.42782 3.05245 6.37067 3.10242 6.32078L1.71267 4.29367L1.99336 4.01299L3.44531 6.13103C3.49745 6.11893 3.55079 6.1127 3.60431 6.11247C3.66562 6.11247 3.72506 6.1211 3.78188 6.13572L5.14055 4.0098C5.02993 3.89506 4.96816 3.74187 4.96823 3.58249C4.96823 3.53374 4.97442 3.48649 4.98511 3.44111L3.29011 2.71642L3.58744 2.41905L5.19338 3.10586C5.27481 3.03874 5.37214 2.99371 5.47602 2.97509C5.57989 2.95647 5.68681 2.9649 5.78648 2.99955L7.03917 1.039L6.00009 -0.00012207L0 5.99997L6.00009 12.0001L6.59053 11.4096L3.89123 7.47166C3.80089 7.51171 3.70318 7.53242 3.60436 7.53246ZM8.34952 5.24074L8.03095 7.2206C8.08662 7.26533 8.13273 7.32081 8.16652 7.38373C8.2003 7.44664 8.22109 7.51572 8.22764 7.58683L10.0357 7.96427L11.6913 6.30864L8.70295 5.03097C8.61745 5.14481 8.4904 5.22018 8.34952 5.24074Z" fill="#25C7B7"/>
</svg>
