<svg width="28" height="17" viewBox="0 0 28 17" fill="none" xmlns="http://www.w3.org/2000/svg">
<path d="M6.60682 4.38453H11.8879V4.80226H7.09091V7.94622H11.6018V8.36395H7.09091V11.8157H11.9429V12.2334H6.60682V4.38453ZM12.361 4.38453H12.9221L15.4086 7.8363L17.9501 4.38453L21.4069 0L15.7276 8.19906L18.6542 12.2334H18.0711L15.4086 8.56182L12.735 12.2334H12.1629L15.1115 8.19906L12.361 4.38453ZM18.8633 4.80226V4.38453H24.8815V4.80226H22.1089V12.2334H21.6248V4.80226H18.8633Z" fill="black"/>
<path d="M0 4.38454H0.605121L8.94939 16.8109L5.5011 12.2334L0.506101 4.97816L0.484097 12.2334H0V4.38454Z" fill="black"/>
<path d="M24.8327 11.6896C24.9328 11.6896 25.0058 11.6134 25.0058 11.5148C25.0058 11.4163 24.9328 11.34 24.8327 11.34C24.7338 11.34 24.6596 11.4163 24.6596 11.5148C24.6596 11.6134 24.7338 11.6896 24.8327 11.6896ZM25.3084 11.2297C25.3084 11.5207 25.5192 11.7107 25.8265 11.7107C26.1538 11.7107 26.3516 11.5148 26.3516 11.1745V9.97661H26.0879V11.1734C26.0879 11.3623 25.9925 11.4632 25.8241 11.4632C25.6734 11.4632 25.571 11.3693 25.5674 11.2297H25.3084ZM26.6966 11.2144C26.7154 11.5172 26.9686 11.7107 27.3454 11.7107C27.748 11.7107 28 11.5078 28 11.1839C28 10.9293 27.8564 10.7885 27.5078 10.7076L27.3206 10.6618C27.0993 10.6102 27.0098 10.541 27.0098 10.4201C27.0098 10.2676 27.1487 10.1679 27.3571 10.1679C27.5549 10.1679 27.6915 10.2652 27.7163 10.4213H27.9729C27.9576 10.1362 27.7057 9.93554 27.3607 9.93554C26.9898 9.93554 26.7425 10.1362 26.7425 10.4377C26.7425 10.6865 26.8826 10.8343 27.1899 10.9059L27.4089 10.9587C27.6338 11.0115 27.7327 11.0889 27.7327 11.218C27.7327 11.3681 27.5773 11.4773 27.3654 11.4773C27.1381 11.4773 26.9804 11.3752 26.958 11.2144H26.6966Z" fill="black"/>
</svg>
