<svg width="12" height="14" viewBox="0 0 12 14" fill="none" xmlns="http://www.w3.org/2000/svg">
<path d="M5.45858 0.141079C5.78646 -0.0466022 6.21354 -0.04745 6.54115 0.141079C8.1893 1.07237 9.83798 2.00221 11.4859 2.93407C11.7958 3.10866 12.0031 3.4536 12 3.81073V9.41376C12.0023 9.78568 11.7745 10.1389 11.4475 10.3095C9.80473 11.2357 8.16284 12.1629 6.52038 13.0891C6.18571 13.2805 5.75006 13.2657 5.42584 13.0587C4.93335 12.7732 4.44001 12.4891 3.94747 12.2039C3.84682 12.1439 3.73337 12.0961 3.6623 11.9985C3.72513 11.9139 3.83745 11.9033 3.92873 11.8663C4.1343 11.801 4.32312 11.696 4.51197 11.5942C4.55973 11.5615 4.61804 11.574 4.66382 11.6033C5.08496 11.8448 5.50238 12.0932 5.92493 12.3324C6.01507 12.3844 6.10635 12.3154 6.1834 12.2724C7.79543 11.3613 9.40944 10.4537 11.0212 9.54229C11.0809 9.51356 11.1139 9.45016 11.1091 9.38475C11.1102 7.53643 11.1094 5.68778 11.1096 3.83946C11.1165 3.76524 11.0735 3.69699 11.0064 3.66661C9.36937 2.74469 7.73317 1.82136 6.09641 0.899198C6.06805 0.879703 6.03446 0.869242 6.00005 0.869192C5.96563 0.869141 5.93201 0.879503 5.90359 0.898916C4.26684 1.82136 2.63092 2.74554 0.994163 3.66742C0.927285 3.69784 0.882402 3.76495 0.890361 3.83946C0.890644 5.68778 0.890361 7.53643 0.890361 9.38503C0.887523 9.41695 0.894533 9.44897 0.910448 9.47678C0.926363 9.5046 0.950418 9.52687 0.979374 9.54059C1.41615 9.78827 1.85349 10.0342 2.29055 10.281C2.53678 10.4136 2.83909 10.4923 3.11037 10.3908C3.34976 10.3049 3.51757 10.0606 3.513 9.80645C3.51526 7.96892 3.51187 6.1311 3.5147 4.29385C3.50872 4.21228 3.5861 4.14488 3.66541 4.15256C3.87527 4.15115 4.08542 4.14973 4.29528 4.15313C4.38288 4.15115 4.44317 4.23898 4.43233 4.32117C4.43149 6.17033 4.43459 8.01955 4.43092 9.86872C4.43149 10.3615 4.22902 10.8978 3.77316 11.1389C3.21158 11.4298 2.51747 11.3681 1.96266 11.0892C1.48237 10.8495 1.02402 10.5666 0.552252 10.3097C0.22441 10.14 -0.00226721 9.78545 4.05363e-05 9.41381V3.81073C-0.00339754 3.4462 0.212165 3.095 0.531765 2.92295C2.17422 1.99604 3.8164 1.06842 5.45858 0.141079Z" fill="#8CC84B"/>
<path d="M6.89145 4.02233C7.6078 3.97622 8.37468 3.99501 9.01929 4.34791C9.51838 4.61834 9.79507 5.18591 9.80388 5.74038C9.78994 5.81517 9.71176 5.85643 9.64036 5.85129C9.43252 5.85101 9.22463 5.85412 9.0168 5.84988C8.92863 5.85327 8.87739 5.77198 8.86632 5.69404C8.8066 5.42874 8.66192 5.16598 8.41221 5.03802C8.02889 4.8461 7.58444 4.85576 7.16645 4.85976C6.86131 4.87596 6.53319 4.90238 6.27467 5.08182C6.0762 5.21774 6.01592 5.49213 6.08675 5.71311C6.15354 5.87178 6.3367 5.92297 6.48656 5.97016C7.34985 6.19595 8.26466 6.17348 9.11146 6.47062C9.46205 6.59175 9.80501 6.82723 9.92501 7.19431C10.082 7.68628 10.0132 8.27434 9.66315 8.66929C9.3793 8.99431 8.96588 9.1712 8.55355 9.26728C8.00501 9.38959 7.43575 9.3927 6.87869 9.3384C6.35488 9.27868 5.80978 9.14106 5.4054 8.78416C5.05962 8.48392 4.89073 8.0161 4.90749 7.56458C4.9115 7.48833 4.98742 7.43516 5.06046 7.44143C5.26976 7.43973 5.47906 7.43917 5.68836 7.44171C5.77196 7.43573 5.83394 7.50797 5.83822 7.58677C5.87684 7.83954 5.97184 8.10483 6.19225 8.2547C6.61763 8.52913 7.15138 8.51034 7.63846 8.51801C8.04198 8.50012 8.49496 8.4947 8.82426 8.22799C8.998 8.07587 9.04948 7.82136 9.00252 7.6024C8.95166 7.41755 8.75828 7.33141 8.59222 7.27508C7.74 7.0055 6.81497 7.10332 5.97099 6.79846C5.62836 6.67737 5.29703 6.44843 5.1654 6.09643C4.98172 5.59824 5.06588 4.98202 5.45259 4.6004C5.82965 4.2208 6.37395 4.07461 6.89145 4.02228V4.02233Z" fill="#8CC84B"/>
</svg>
