<svg width="15" height="15" viewBox="0 0 15 15" fill="none" xmlns="http://www.w3.org/2000/svg">
<path d="M13.4359 2.91594C12.5292 1.74183 11.2947 0.862977 9.88852 0.390527C8.48232 -0.081922 6.9676 -0.126745 5.53593 0.261728C4.10426 0.6502 2.81994 1.45452 1.84541 2.57296C0.870882 3.6914 0.249914 5.07372 0.0610423 6.5451C-0.127829 8.01648 0.12388 9.51082 0.784336 10.8391C1.44479 12.1675 2.48433 13.2701 3.77147 14.0075C5.05861 14.745 6.53554 15.0842 8.01547 14.9823C9.49541 14.8803 10.9119 14.3417 12.0857 13.4347C15.3622 10.9025 15.9669 6.19367 13.4357 2.91594H13.4359Z" fill="#FF6C37"/>
<path d="M10.0295 4.77876L6.86714 7.96626L5.97348 7.04751C9.08594 3.93501 9.39835 4.21626 10.0297 4.77876H10.0295Z" fill="white"/>
<path d="M6.86718 8.05343C6.83917 8.05275 6.81242 8.04163 6.79218 8.02226L5.89218 7.12226C5.87192 7.10129 5.8606 7.07326 5.8606 7.0441C5.8606 7.01493 5.87192 6.98691 5.89218 6.96593C8.96083 3.89727 9.37965 4.04094 10.1046 4.69719C10.1167 4.7069 10.1264 4.71931 10.1329 4.73342C10.1394 4.74754 10.1426 4.76298 10.1421 4.77851C10.1468 4.80898 10.135 4.84016 10.1109 4.85984L6.9485 8.0225C6.92633 8.04283 6.89726 8.05397 6.86718 8.05367V8.05343ZM6.1296 7.04726L6.86718 7.78484L9.86715 4.78484C9.76357 4.65503 9.61577 4.56796 9.45202 4.54029C9.28827 4.51262 9.12007 4.54628 8.97958 4.63484C8.43583 4.87859 7.56092 5.62226 6.1296 7.04726Z" fill="#FF6C37"/>
<path d="M7.77342 8.84748L6.91092 7.96623L10.0733 4.84109C10.9234 5.67242 9.66083 7.05991 7.77342 8.84724V8.84748Z" fill="white"/>
<path d="M7.7735 8.95999C7.74583 8.95779 7.71957 8.94688 7.6985 8.92882L6.81726 8.06632C6.80404 8.03427 6.80404 7.9983 6.81726 7.96625C6.80789 7.93995 6.80789 7.91122 6.81726 7.88492L9.97965 4.72251C10.0016 4.70184 10.0307 4.69034 10.0609 4.69034C10.091 4.69034 10.1201 4.70184 10.1421 4.72251C10.2445 4.81677 10.3254 4.93198 10.3793 5.0603C10.4332 5.18863 10.4589 5.32706 10.4545 5.46618C10.4545 6.30992 9.49192 7.37234 7.85459 8.92249C7.83272 8.94414 7.80393 8.95741 7.77326 8.95999H7.7735ZM7.07343 7.96625L7.77959 8.67218C9.0295 7.49093 10.2234 6.27219 10.2295 5.44719C10.2363 5.2723 10.1785 5.10102 10.0671 4.96602L7.07343 7.96625Z" fill="#FF6C37"/>
<path d="M5.99837 7.06626L6.62344 7.69133C6.62743 7.69485 6.63063 7.69918 6.63281 7.70403C6.635 7.70888 6.63614 7.71414 6.63614 7.71946C6.63614 7.72478 6.635 7.73004 6.63281 7.73489C6.63063 7.73973 6.62743 7.74406 6.62344 7.74758L5.30463 8.02883C5.278 8.03458 5.25023 8.03146 5.22554 8.01997C5.20085 8.00847 5.1806 7.98922 5.16786 7.96515C5.15512 7.94108 5.1506 7.91351 5.15498 7.88663C5.15936 7.85975 5.1724 7.83503 5.19213 7.81625L5.96087 7.05383C5.96087 7.05383 5.98595 7.05383 5.99837 7.06626Z" fill="white"/>
<path d="M5.27342 8.15373C5.23175 8.15321 5.19091 8.14201 5.15481 8.12121C5.1187 8.10041 5.08853 8.07069 5.06717 8.03491C5.04314 7.98958 5.03442 7.93769 5.04232 7.88699C5.05022 7.8363 5.07432 7.78953 5.111 7.75366L5.87341 6.98491C5.90091 6.96033 5.93649 6.94675 5.97337 6.94675C6.01025 6.94675 6.04584 6.96033 6.07333 6.98491L6.6984 7.60999C6.73543 7.64514 6.74996 7.69835 6.7359 7.74756C6.72184 7.79678 6.68059 7.83592 6.62973 7.84764L5.31092 8.12889L5.27342 8.15373ZM5.97349 7.20381L5.26733 7.90999L6.43614 7.65991L5.97349 7.20381Z" fill="#FF6C37"/>
<path d="M11.7109 3.02234C11.2586 2.58593 10.5479 2.56765 10.0735 2.97945C9.59917 3.39124 9.51808 4.09812 9.88745 4.60671C10.2568 5.11531 10.9532 5.25781 11.4922 4.93484L10.6421 4.08476L11.7109 3.02234Z" fill="white"/>
<path d="M10.8672 5.22218C10.6073 5.21885 10.3541 5.13912 10.1392 4.99292C9.92434 4.84671 9.75723 4.64051 9.65872 4.4C9.56027 4.15966 9.53445 3.89574 9.58444 3.64089C9.63442 3.38603 9.75803 3.15142 9.93997 2.96609C10.1902 2.72046 10.5268 2.58284 10.8775 2.58284C11.2281 2.58284 11.5647 2.72046 11.815 2.96609C11.8389 2.98624 11.8525 3.01601 11.8525 3.04742C11.8524 3.06287 11.849 3.07813 11.8426 3.09216C11.8361 3.10619 11.8267 3.11867 11.815 3.12874L10.8025 4.08499L11.5712 4.84132C11.5837 4.85322 11.593 4.86798 11.5985 4.88432C11.6039 4.90067 11.6052 4.91809 11.6024 4.93507C11.6005 4.95146 11.5951 4.96724 11.5865 4.98129C11.5779 4.99535 11.5662 5.00733 11.5525 5.0164C11.3459 5.14549 11.1085 5.21672 10.865 5.22265L10.8672 5.22218ZM10.8672 2.7971C10.4218 2.79945 10.0234 3.06734 9.8563 3.47679C9.68919 3.88624 9.78013 4.35757 10.0923 4.67211C10.2476 4.82829 10.4464 4.93394 10.6628 4.97521C10.8791 5.01649 11.1029 4.99147 11.3047 4.90343L10.5672 4.16585C10.5554 4.15648 10.546 4.14459 10.5395 4.13105C10.533 4.11752 10.5296 4.1027 10.5296 4.08769C10.5296 4.07268 10.533 4.05786 10.5395 4.04433C10.546 4.0308 10.5554 4.0189 10.5672 4.00953L11.5422 3.0282C11.3483 2.87966 11.1113 2.79844 10.8672 2.79687V2.7971Z" fill="#FF6C37"/>
<path d="M11.7296 3.04109L10.6609 4.10351L11.511 4.95358C11.5965 4.90447 11.6762 4.84573 11.7484 4.77851C11.9712 4.54302 12.0938 4.23017 12.0903 3.90601C12.0868 3.58184 11.9575 3.27172 11.7296 3.04109Z" fill="white"/>
<path d="M11.492 5.04735C11.478 5.04811 11.4639 5.04571 11.451 5.04031C11.438 5.03492 11.4264 5.02667 11.417 5.01618L10.5669 4.1661C10.5552 4.15673 10.5457 4.14483 10.5392 4.1313C10.5327 4.11777 10.5294 4.10295 10.5294 4.08794C10.5294 4.07293 10.5327 4.0581 10.5392 4.04457C10.5457 4.03104 10.5552 4.01915 10.5669 4.00977L11.6294 2.9661C11.6396 2.95063 11.6535 2.93794 11.6699 2.92916C11.6863 2.92038 11.7045 2.91579 11.7231 2.91579C11.7417 2.91579 11.7599 2.92038 11.7763 2.92916C11.7927 2.93794 11.8066 2.95063 11.8168 2.9661C11.9416 3.0883 12.0407 3.23417 12.1083 3.39515C12.1759 3.55613 12.2108 3.72899 12.2108 3.9036C12.2108 4.07822 12.1759 4.25108 12.1083 4.41206C12.0407 4.57304 11.9416 4.7189 11.8168 4.8411C11.7433 4.91914 11.6591 4.98644 11.5668 5.04103C11.5435 5.05274 11.5167 5.05501 11.4918 5.04735H11.492ZM10.8046 4.08501L11.5108 4.79118C11.5593 4.75713 11.6053 4.71953 11.6483 4.67868C11.8559 4.47165 11.9728 4.19069 11.9734 3.89751C11.9739 3.63514 11.8783 3.38167 11.7046 3.18501L10.8046 4.08501Z" fill="#FF6C37"/>
<path d="M10.1608 4.91C10.0762 4.8305 9.9644 4.78625 9.84827 4.78625C9.73215 4.78625 9.62039 4.8305 9.53574 4.91L6.70474 7.73469L7.17349 8.20977L10.1671 5.58477C10.2128 5.54101 10.249 5.48837 10.2736 5.43009C10.2981 5.37182 10.3105 5.30913 10.3099 5.2459C10.3093 5.18266 10.2957 5.12022 10.2701 5.06241C10.2445 5.00461 10.2073 4.95266 10.1608 4.90976V4.91Z" fill="white"/>
<path d="M7.1484 8.3225C7.12039 8.32181 7.09365 8.3107 7.0734 8.29133L6.59833 7.81625C6.57807 7.79528 6.56674 7.76725 6.56674 7.73809C6.56674 7.70892 6.57807 7.6809 6.59833 7.65992L9.42956 4.8411C9.5111 4.75965 9.61524 4.70458 9.72847 4.68303C9.84169 4.66148 9.95878 4.67444 10.0645 4.72024C10.1703 4.76604 10.2599 4.84256 10.3216 4.93987C10.3834 5.03719 10.4145 5.15082 10.4109 5.26602C10.4076 5.34421 10.3888 5.42097 10.3555 5.4918C10.3222 5.56263 10.2752 5.62611 10.217 5.67852L7.2234 8.30352C7.20163 8.31893 7.17487 8.32562 7.1484 8.32227V8.3225ZM6.81723 7.73469L7.12965 8.05344L10.067 5.49711C10.1397 5.43383 10.1831 5.34336 10.1859 5.24704C10.1887 5.15071 10.1507 5.05649 10.0797 4.99086C10.0141 4.92556 9.92534 4.88889 9.83279 4.88889C9.74024 4.88889 9.65146 4.92556 9.58588 4.99086L6.81723 7.73469Z" fill="#FF6C37"/>
<path d="M4.51099 10.9536C4.503 10.9645 4.49868 10.9776 4.49868 10.9911C4.49868 11.0046 4.503 11.0177 4.51099 11.0286L4.63591 11.5723C4.64092 11.6043 4.63617 11.6371 4.62229 11.6664C4.60841 11.6956 4.58605 11.72 4.5581 11.7364C4.53025 11.7527 4.49796 11.7597 4.46586 11.7565C4.43377 11.7532 4.40353 11.7399 4.37951 11.7184L3.52335 10.8934L6.19214 8.20343H7.11721L7.74228 8.82851C6.76722 9.68103 5.68003 10.396 4.51099 10.9536Z" fill="white"/>
<path d="M4.45469 11.8724C4.38391 11.8709 4.31407 11.8419 4.26719 11.791L3.44853 10.9724C3.4368 10.963 3.42734 10.9511 3.42083 10.9376C3.41433 10.924 3.41095 10.9092 3.41095 10.8942C3.41095 10.8792 3.41433 10.8644 3.42083 10.8508C3.42734 10.8373 3.4368 10.8254 3.44853 10.816L6.13585 8.12235C6.1509 8.10636 6.17056 8.09546 6.1921 8.09118H7.12326C7.14753 8.0826 7.174 8.0826 7.19826 8.09118L7.82334 8.71626C7.83522 8.72722 7.84427 8.7409 7.8497 8.75613C7.85513 8.77136 7.85678 8.78767 7.85451 8.80368C7.85495 8.81921 7.85179 8.83463 7.84529 8.84874C7.83878 8.86285 7.8291 8.87526 7.81701 8.88501L7.76709 8.92884C6.78809 9.745 5.71102 10.4357 4.56086 10.985L4.67969 11.4913C4.68888 11.5303 4.68923 11.5709 4.68072 11.6101C4.67221 11.6493 4.65506 11.6861 4.63051 11.7179C4.60597 11.7496 4.57465 11.7755 4.53884 11.7936C4.50303 11.8116 4.46363 11.8215 4.42352 11.8224L4.45469 11.8724ZM3.69228 10.891L4.42961 11.6347C4.43648 11.6408 4.44537 11.6442 4.45458 11.6442C4.46378 11.6442 4.47267 11.6408 4.47954 11.6347C4.48413 11.6283 4.48661 11.6206 4.48661 11.6128C4.48661 11.6049 4.48413 11.5972 4.47954 11.5909L4.35462 11.0471C4.34477 11.0081 4.34873 10.9669 4.36581 10.9304C4.3829 10.894 4.41207 10.8646 4.44836 10.8472C5.5676 10.3053 6.6169 9.62946 7.57326 8.83462L7.06069 8.32204H6.22327L3.69228 10.891Z" fill="#FF6C37"/>
<path d="M2.87975 11.5348L3.50482 10.9098L4.46739 11.8723L2.93624 11.7662C2.90995 11.7641 2.88498 11.7538 2.8649 11.7367C2.84482 11.7196 2.83065 11.6966 2.82441 11.671C2.81818 11.6454 2.82019 11.6184 2.83017 11.594C2.84015 11.5696 2.85759 11.549 2.87999 11.5351L2.87975 11.5348Z" fill="white"/>
<path d="M4.48592 11.9661L2.96086 11.8599C2.87039 11.8515 2.79258 11.7896 2.76071 11.7069C2.72883 11.6241 2.74828 11.5259 2.81086 11.4598L3.43593 10.8348C3.45691 10.8145 3.48493 10.8032 3.5141 10.8032C3.54326 10.8032 3.57128 10.8145 3.59226 10.8348L4.5485 11.791C4.56174 11.8092 4.56887 11.831 4.56887 11.8535C4.56887 11.8759 4.56174 11.8978 4.5485 11.9159C4.53404 11.9393 4.51192 11.957 4.48592 11.9659V11.9661ZM2.96086 11.6162L4.21077 11.6975L3.52335 11.0537L2.96086 11.6162Z" fill="#FF6C37"/>
<path d="M7.20466 8.27889L5.94211 8.47272L6.67334 7.7478L7.20466 8.27889Z" fill="white"/>
<path d="M5.94206 8.5911C5.92108 8.59165 5.9004 8.58601 5.8826 8.57488C5.86481 8.56375 5.85068 8.54762 5.84199 8.52852C5.82868 8.51041 5.8215 8.48853 5.8215 8.46606C5.8215 8.44359 5.82868 8.4217 5.84199 8.40359L6.56689 7.67234C6.58888 7.65167 6.61793 7.64017 6.6481 7.64017C6.67828 7.64017 6.70732 7.65167 6.72931 7.67234L7.26086 8.20344C7.27148 8.22028 7.27712 8.23978 7.27712 8.25969C7.27712 8.2796 7.27148 8.2991 7.26086 8.31594C7.25565 8.33646 7.24463 8.35505 7.22913 8.36947C7.21362 8.3839 7.19429 8.39355 7.17344 8.39727L5.92355 8.5911H5.94206ZM6.6733 7.90976L6.26713 8.31594L6.9672 8.20976L6.6733 7.90976Z" fill="#FF6C37"/>
<path d="M7.20467 8.27845L6.32343 8.39095C6.29985 8.39631 6.27517 8.39392 6.25305 8.38414C6.23094 8.37436 6.21256 8.35772 6.20064 8.33668C6.18872 8.31563 6.18391 8.29131 6.1869 8.26731C6.1899 8.24331 6.20054 8.22092 6.21726 8.20345L6.67358 7.74712L7.20467 8.27845Z" fill="white"/>
<path d="M6.29832 8.51001C6.25747 8.50962 6.21745 8.49842 6.18234 8.47755C6.14722 8.45668 6.11826 8.42688 6.0984 8.39119C6.07453 8.3484 6.06527 8.299 6.07204 8.25048C6.07881 8.20196 6.10123 8.15698 6.13589 8.12236L6.59222 7.66603C6.61421 7.64536 6.64325 7.63386 6.67343 7.63386C6.70361 7.63386 6.73265 7.64536 6.75464 7.66603L7.28596 8.19736C7.30176 8.21233 7.31288 8.23156 7.31797 8.25273C7.32306 8.27389 7.3219 8.29608 7.31463 8.31659C7.30736 8.33711 7.29429 8.35508 7.27702 8.36832C7.25974 8.38156 7.23899 8.3895 7.21729 8.39119L6.34238 8.50369L6.29832 8.51001ZM6.29832 8.27869L6.96089 8.19736L6.66722 7.90369L6.29222 8.27869H6.29832ZM11.7358 3.75993C11.724 3.74021 11.7054 3.72549 11.6835 3.71858C11.6616 3.71167 11.6379 3.71304 11.6169 3.72243C11.6066 3.72767 11.5974 3.73494 11.5899 3.74379C11.5824 3.75265 11.5768 3.76292 11.5733 3.77399C11.5664 3.79633 11.5686 3.82053 11.5794 3.84126C11.6233 3.93337 11.6111 4.04235 11.5483 4.12251C11.5405 4.13023 11.5344 4.13949 11.5303 4.14969C11.5263 4.1599 11.5244 4.17084 11.5248 4.1818C11.5251 4.20378 11.5334 4.2249 11.5483 4.2411C11.5643 4.24743 11.5822 4.24743 11.5982 4.2411C11.6127 4.24476 11.628 4.24436 11.6424 4.23993C11.6567 4.23551 11.6696 4.22724 11.6795 4.21602C11.731 4.15301 11.7636 4.07673 11.7735 3.99598C11.7835 3.91523 11.7704 3.83332 11.7358 3.75969V3.75993Z" fill="#FF6C37"/>
</svg>
