<svg width="15" height="15" viewBox="0 0 15 15" fill="none" xmlns="http://www.w3.org/2000/svg">
<path d="M7.44438 8.05519C7.81257 8.05519 8.11104 7.80646 8.11104 7.49964C8.11104 7.19281 7.81257 6.94408 7.44438 6.94408C7.07619 6.94408 6.77771 7.19281 6.77771 7.49964C6.77771 7.80646 7.07619 8.05519 7.44438 8.05519Z" fill="#61DAFB"/>
<path d="M7.5 10.209C11.0899 10.209 14 8.99602 14 7.49967C14 6.00333 11.0899 4.7903 7.5 4.7903C3.91015 4.7903 1 6.00333 1 7.49967C1 8.99602 3.91015 10.209 7.5 10.209Z" stroke="#61DAFB"/>
<path d="M5.35047 8.85432C7.1454 12.2483 9.56276 14.3931 10.7498 13.6449C11.9368 12.8968 11.444 9.5389 9.64911 6.14495C7.85418 2.75099 5.43683 0.606163 4.24979 1.35434C3.06276 2.10251 3.55555 5.46037 5.35047 8.85432Z" stroke="#61DAFB"/>
<path d="M5.35047 6.14493C3.55555 9.53889 3.06276 12.8967 4.24979 13.6449C5.43683 14.3931 7.85418 12.2483 9.64911 8.8543C11.444 5.46035 11.9368 2.10249 10.7498 1.35432C9.56276 0.606148 7.1454 2.75098 5.35047 6.14493Z" stroke="#61DAFB"/>
</svg>
