<svg width="15" height="15" viewBox="0 0 15 15" fill="none" xmlns="http://www.w3.org/2000/svg">
<path d="M14.8975 7.31619L14.2678 6.92636C14.2625 6.86517 14.2565 6.80403 14.2499 6.74297L14.7911 6.23818C14.8181 6.21304 14.8383 6.18138 14.8496 6.14622C14.861 6.11107 14.8631 6.07359 14.8558 6.03738C14.8487 6.00114 14.8324 5.96733 14.8085 5.93918C14.7846 5.91104 14.7539 5.88949 14.7193 5.8766L14.0275 5.61791C14.0101 5.55817 13.992 5.49863 13.9733 5.43931L14.4048 4.83996C14.4264 4.81 14.44 4.775 14.4443 4.73831C14.4486 4.70161 14.4434 4.66443 14.4293 4.6303C14.4152 4.59616 14.3925 4.5662 14.3636 4.54328C14.3346 4.52035 14.3002 4.50521 14.2638 4.49929L13.5343 4.38064C13.5059 4.32533 13.4764 4.27084 13.4466 4.21681L13.7531 3.54398C13.7686 3.51041 13.7751 3.47343 13.7722 3.4366C13.7692 3.39977 13.7568 3.36431 13.7362 3.33363C13.7158 3.30285 13.6878 3.27783 13.655 3.26098C13.6221 3.24413 13.5854 3.23602 13.5485 3.23742L12.8081 3.2632C12.7699 3.2153 12.7309 3.16801 12.6912 3.12134L12.8613 2.40017C12.8698 2.3642 12.869 2.32666 12.8589 2.29111C12.8488 2.25556 12.8297 2.22319 12.8036 2.19708C12.7775 2.17095 12.7451 2.15193 12.7096 2.14182C12.6741 2.13171 12.6365 2.13084 12.6006 2.13931L11.8796 2.30929C11.8328 2.26961 11.7854 2.23062 11.7374 2.19234L11.7633 1.45201C11.7647 1.4151 11.7566 1.37845 11.7398 1.34557C11.723 1.31269 11.698 1.28468 11.6672 1.26421C11.6365 1.24366 11.6011 1.23131 11.5643 1.22834C11.5275 1.22536 11.4905 1.23186 11.4569 1.24722L10.7842 1.5539C10.73 1.52395 10.6754 1.49466 10.6204 1.46601L10.5015 0.736401C10.4955 0.699968 10.4804 0.665659 10.4574 0.636726C10.4345 0.607792 10.4046 0.585192 10.3705 0.571067C10.3364 0.556942 10.2992 0.55176 10.2625 0.556012C10.2259 0.560265 10.1909 0.57381 10.1609 0.595365L9.56115 1.02691C9.50215 1.00816 9.44279 0.990053 9.38291 0.972885L9.12422 0.280951C9.11135 0.246287 9.08981 0.215502 9.06165 0.191539C9.03349 0.167575 8.99966 0.151234 8.96338 0.144076C8.92719 0.136954 8.88978 0.139166 8.85468 0.150504C8.81958 0.161842 8.78794 0.181932 8.76275 0.208881L8.25797 0.750463C8.19692 0.743622 8.13579 0.737644 8.07457 0.732533L7.68475 0.10265C7.66532 0.0712632 7.6382 0.0453589 7.60595 0.0273942C7.57371 0.00942952 7.53741 0 7.5005 0C7.46359 0 7.42729 0.00942952 7.39504 0.0273942C7.3628 0.0453589 7.33568 0.0712632 7.31625 0.10265L6.92643 0.732533C6.86515 0.737637 6.80395 0.743614 6.74285 0.750463L6.23795 0.208881C6.21279 0.181832 6.18112 0.161673 6.14596 0.150321C6.11081 0.138969 6.07333 0.136801 6.0371 0.144025C6.00087 0.151249 5.96709 0.167623 5.93898 0.191591C5.91086 0.215558 5.88935 0.24632 5.87648 0.280951L5.61785 0.972885C5.55791 0.990053 5.49861 1.00828 5.43943 1.02691L4.83979 0.595365C4.80983 0.573711 4.77482 0.560104 4.7381 0.555847C4.70139 0.551589 4.66419 0.556824 4.63008 0.571049C4.59599 0.585206 4.56608 0.607818 4.54317 0.636751C4.52025 0.665683 4.50509 0.69998 4.49912 0.736401L4.38018 1.46601C4.3251 1.49455 4.27066 1.5239 4.21635 1.5539L3.54363 1.24716C3.51006 1.23179 3.4731 1.22529 3.43629 1.22828C3.39949 1.23126 3.36406 1.24364 3.3334 1.26421C3.30263 1.28467 3.27763 1.31267 3.26078 1.34555C3.24394 1.37843 3.23581 1.41509 3.23719 1.45201L3.26297 2.19234C3.21507 2.23069 3.16768 2.26968 3.12082 2.30929L2.39982 2.13937C2.36386 2.13094 2.32634 2.13182 2.2908 2.14192C2.25527 2.15201 2.2229 2.171 2.19674 2.19708C2.17057 2.22319 2.15152 2.25556 2.14141 2.29111C2.13129 2.32666 2.13045 2.3642 2.13896 2.40017L2.30883 3.12134C2.26939 3.16804 2.23043 3.21533 2.19217 3.2632L1.45178 3.23742C1.41491 3.23625 1.37834 3.24446 1.34551 3.26128C1.31268 3.2781 1.28465 3.30297 1.26404 3.33357C1.2435 3.36427 1.23114 3.39971 1.22816 3.43653C1.22518 3.47335 1.23166 3.51032 1.24699 3.54392L1.55367 4.21681C1.52385 4.27084 1.49438 4.32533 1.46578 4.38064L0.736348 4.49929C0.699896 4.50524 0.665567 4.52039 0.636617 4.54333C0.607667 4.56626 0.585056 4.59621 0.570929 4.63034C0.556801 4.66446 0.551626 4.70163 0.555893 4.73831C0.560161 4.775 0.573729 4.80999 0.595313 4.83996L1.02686 5.43937C1.00811 5.49855 0.989883 5.55797 0.972656 5.61791L0.280781 5.8766C0.246229 5.88958 0.21556 5.91116 0.191677 5.9393C0.167795 5.96745 0.151489 6.00122 0.144302 6.03742C0.137115 6.07363 0.139285 6.11106 0.150608 6.14619C0.16193 6.18133 0.182029 6.21299 0.209004 6.23818L0.750234 6.74291C0.743496 6.80384 0.73752 6.86519 0.732363 6.92636L0.102539 7.31619C0.0711571 7.33562 0.045263 7.36275 0.0273164 7.395C0.00936985 7.42725 -3.33091e-05 7.46356 8.86559e-08 7.50047C8.86559e-08 7.5757 0.0388477 7.64537 0.102598 7.68463L0.732363 8.07445C0.73752 8.1358 0.743496 8.19703 0.750234 8.25791L0.208945 8.76281C0.181923 8.78797 0.161781 8.81963 0.150432 8.85476C0.139082 8.8899 0.136903 8.92735 0.1441 8.96357C0.151298 8.99978 0.167633 9.03356 0.191555 9.06169C0.215476 9.08981 0.246191 9.11136 0.280781 9.12428L0.972656 9.38297C0.989883 9.44285 1.00811 9.50232 1.02686 9.5615L0.595313 10.161C0.573689 10.1909 0.560091 10.2259 0.555814 10.2626C0.551536 10.2993 0.55672 10.3365 0.570874 10.3707C0.585027 10.4048 0.607679 10.4347 0.636674 10.4576C0.665668 10.4805 0.700042 10.4957 0.736524 10.5015L1.46584 10.6202C1.49438 10.6755 1.52361 10.73 1.55373 10.7842L1.24699 11.4569C1.23163 11.4905 1.22513 11.5275 1.22812 11.5643C1.2311 11.6011 1.24347 11.6366 1.26404 11.6672C1.2845 11.698 1.3125 11.723 1.34537 11.7398C1.37824 11.7566 1.41487 11.7648 1.45178 11.7634L2.19182 11.7375C2.23043 11.7856 2.26928 11.8328 2.30883 11.8796L2.13896 12.6009C2.13046 12.6368 2.1313 12.6743 2.14142 12.7098C2.15153 12.7453 2.17058 12.7776 2.19674 12.8036C2.22282 12.8298 2.2552 12.8489 2.29076 12.8589C2.32632 12.869 2.36387 12.8698 2.39982 12.8612L3.12082 12.6914C3.1677 12.7313 3.21516 12.7699 3.26303 12.808L3.23725 13.5486C3.23592 13.5855 3.24405 13.6221 3.26087 13.655C3.27769 13.6878 3.30264 13.7159 3.33335 13.7364C3.36405 13.7569 3.3995 13.7692 3.4363 13.7721C3.47311 13.7751 3.51006 13.7686 3.54363 13.7532L4.21635 13.4467C4.27051 13.4768 4.32513 13.5061 4.38018 13.5345L4.49912 14.2637C4.505 14.3002 4.52012 14.3346 4.54304 14.3635C4.56597 14.3925 4.59593 14.4151 4.63008 14.4292C4.66421 14.4434 4.70137 14.4486 4.73807 14.4443C4.77477 14.4401 4.80977 14.4266 4.83979 14.405L5.43914 13.9732C5.49832 13.992 5.55779 14.0103 5.61768 14.0275L5.87637 14.7192C5.88925 14.7538 5.91079 14.7845 5.93894 14.8084C5.96709 14.8323 6.0009 14.8486 6.03715 14.8557C6.07335 14.863 6.11082 14.8609 6.14596 14.8496C6.1811 14.8382 6.21274 14.818 6.23783 14.7909L6.74273 14.2496C6.80367 14.2567 6.86496 14.2625 6.92631 14.268L7.31613 14.8978C7.33558 14.9291 7.3627 14.955 7.39492 14.9729C7.42714 14.9908 7.46341 15.0003 7.50029 15.0003C7.53719 15.0003 7.57348 14.9909 7.60573 14.9729C7.63797 14.955 7.66511 14.9291 7.68457 14.8978L8.07439 14.268C8.13574 14.2625 8.19697 14.2567 8.25785 14.2496L8.76264 14.7909C8.78773 14.818 8.81936 14.8382 8.85449 14.8495C8.88962 14.8609 8.92707 14.863 8.96326 14.8557C8.9995 14.8486 9.0333 14.8323 9.06144 14.8084C9.08959 14.7845 9.11114 14.7538 9.12404 14.7192L9.38273 14.0275C9.44262 14.0103 9.50215 13.992 9.56133 13.9732L10.1608 14.405C10.1908 14.4266 10.2258 14.4401 10.2625 14.4444C10.2992 14.4486 10.3363 14.4434 10.3704 14.4292C10.4046 14.4151 10.4345 14.3925 10.4574 14.3635C10.4803 14.3345 10.4954 14.3002 10.5013 14.2637L10.6203 13.5345C10.6753 13.506 10.7297 13.4763 10.7841 13.4466L11.4568 13.7532C11.4904 13.7686 11.5273 13.7752 11.5641 13.7722C11.601 13.7693 11.6364 13.757 11.6672 13.7365C11.6979 13.716 11.7229 13.6879 11.7397 13.655C11.7565 13.6221 11.7646 13.5855 11.7632 13.5486L11.7374 12.8081C11.7854 12.7699 11.8327 12.731 11.8794 12.6914L12.6005 12.8612C12.6737 12.8784 12.7505 12.8571 12.8034 12.8036C12.8295 12.7776 12.8486 12.7453 12.8587 12.7098C12.8688 12.6743 12.8697 12.6368 12.8612 12.6009L12.6913 11.8796C12.7309 11.8328 12.7699 11.7856 12.8079 11.7375L13.5483 11.7634C13.5852 11.7648 13.6219 11.7567 13.6548 11.7399C13.6876 11.723 13.7156 11.6981 13.7361 11.6673C13.7567 11.6366 13.7691 11.6011 13.772 11.5643C13.775 11.5274 13.7684 11.4904 13.753 11.4568L13.4464 10.7843C13.4764 10.73 13.5058 10.6755 13.5342 10.6202L14.2637 10.5015C14.3001 10.4957 14.3345 10.4805 14.3634 10.4576C14.3924 10.4347 14.415 10.4047 14.429 10.3705C14.4431 10.3364 14.4483 10.2993 14.4441 10.2626C14.4398 10.2259 14.4263 10.1909 14.4047 10.161L13.9731 9.56156C13.9918 9.50232 14.01 9.44285 14.0273 9.38297L14.7191 9.12428C14.7537 9.1114 14.7845 9.08984 14.8084 9.06168C14.8323 9.03352 14.8486 8.99969 14.8557 8.96344C14.863 8.92725 14.8608 8.88979 14.8495 8.85466C14.8382 8.81952 14.818 8.7879 14.7909 8.76281L14.2498 8.25791C14.2563 8.19697 14.2624 8.13568 14.2676 8.07451L14.8974 7.68463C14.9288 7.66524 14.9547 7.63813 14.9727 7.6059C14.9906 7.57366 15 7.53737 15 7.50047C15 7.42541 14.9613 7.35562 14.8975 7.31619ZM10.6828 12.5402C10.4423 12.4883 10.2894 12.2513 10.341 12.0101C10.3924 11.7691 10.6293 11.6158 10.8697 11.6677C11.1101 11.7192 11.2633 11.9566 11.2117 12.1973C11.1602 12.4382 10.9231 12.5917 10.6828 12.5402ZM10.4688 11.093C10.4166 11.0818 10.3627 11.081 10.3102 11.0906C10.2577 11.1003 10.2077 11.1202 10.1629 11.1492C10.1181 11.1782 10.0795 11.2158 10.0492 11.2597C10.019 11.3037 9.99766 11.3532 9.98654 11.4054L9.76295 12.4488C9.07301 12.7619 8.30689 12.9359 7.5 12.9359C6.67465 12.9359 5.89184 12.7533 5.18965 12.4268L4.96617 11.3835C4.91918 11.1639 4.70332 11.0241 4.48406 11.0712L3.56297 11.269C3.39178 11.0928 3.23267 10.9053 3.08672 10.7077H7.56855C7.61924 10.7077 7.65305 10.6985 7.65305 10.6523V9.06691C7.65305 9.0208 7.61924 9.0116 7.5685 9.0116H6.25781V8.00672H7.67549C7.80486 8.00672 8.36742 8.04363 8.54725 8.76269C8.60361 8.98383 8.72725 9.70312 8.81186 9.9334C8.89611 10.1917 9.23918 10.7076 9.6048 10.7076H11.8381C11.8635 10.7076 11.8905 10.7047 11.9191 10.6996C11.7641 10.91 11.5944 11.1091 11.4111 11.2955L10.4688 11.093H10.4688ZM4.27014 12.5184C4.02961 12.5703 3.79283 12.417 3.74109 12.176C3.68965 11.9347 3.84258 11.6978 4.08305 11.6459C4.32357 11.5945 4.56047 11.7478 4.61203 11.9887C4.66348 12.2295 4.51043 12.4668 4.27008 12.5184H4.27014ZM2.56992 5.62423C2.66971 5.84935 2.56816 6.1132 2.34334 6.21281C2.11852 6.31271 1.85537 6.21105 1.75564 5.98576C1.65586 5.76047 1.75734 5.49709 1.98223 5.39718C2.03571 5.37346 2.09335 5.36051 2.15185 5.35909C2.21034 5.35766 2.26855 5.36777 2.32313 5.38885C2.37771 5.40993 2.4276 5.44157 2.46995 5.48195C2.5123 5.52233 2.54627 5.57066 2.56992 5.62418V5.62423ZM2.04738 6.86291L3.00691 6.43652C3.10542 6.3927 3.1825 6.31157 3.22121 6.21095C3.25993 6.11034 3.25712 5.99846 3.2134 5.89992L3.01582 5.45308H3.79301V8.95629H2.22498C2.08599 8.46698 2.01567 7.96073 2.01604 7.45207C2.01604 7.25297 2.02676 7.05621 2.04738 6.86285V6.86291ZM6.25805 6.52265V5.49006H8.10879C8.20441 5.49006 8.78379 5.60056 8.78379 6.03381C8.78379 6.39351 8.33941 6.52248 7.97397 6.52248H6.25805V6.52265ZM12.9841 7.45207C12.9841 7.58906 12.9791 7.72465 12.9691 7.85918H12.4064C12.3501 7.85918 12.3274 7.89621 12.3274 7.95135V8.20974C12.3274 8.81795 11.9845 8.95025 11.6839 8.98394C11.3978 9.01617 11.0804 8.86412 11.0413 8.68898C10.8725 7.73941 10.5912 7.53662 10.1469 7.18617C10.6983 6.83607 11.2719 6.31957 11.2719 5.62816C11.2719 4.88168 10.7602 4.41146 10.4113 4.18089C9.92191 3.85828 9.38004 3.79359 9.23385 3.79359H3.41479C4.20387 2.91292 5.27332 2.28908 6.48287 2.06208L7.16877 2.78162C7.20557 2.82024 7.24962 2.85122 7.29841 2.8728C7.3472 2.89437 7.39977 2.90611 7.4531 2.90734C7.50644 2.90857 7.55949 2.89927 7.60922 2.87997C7.65895 2.86067 7.70439 2.83174 7.74293 2.79486L8.51039 2.0608C10.1185 2.36021 11.48 3.36123 12.2647 4.73461L11.7393 5.92131C11.6486 6.12668 11.7411 6.36685 11.9459 6.45785L12.9575 6.90715C12.9749 7.08674 12.9841 7.26814 12.9841 7.45207ZM7.16906 1.44996C7.34678 1.27974 7.62867 1.28648 7.79883 1.46443C7.96863 1.6429 7.96219 1.92509 7.78406 2.09519C7.60635 2.26546 7.32445 2.25884 7.1543 2.08054C7.07276 1.9949 7.02853 1.88041 7.0313 1.7622C7.03407 1.64398 7.08361 1.53169 7.16906 1.44996ZM12.3829 5.64586C12.4066 5.59234 12.4405 5.54402 12.4829 5.50364C12.5252 5.46327 12.5751 5.43164 12.6297 5.41057C12.6842 5.38949 12.7424 5.37939 12.8009 5.38083C12.8594 5.38228 12.917 5.39524 12.9705 5.41898C13.1954 5.51871 13.2969 5.78244 13.1971 6.00756C13.1734 6.06109 13.1395 6.10945 13.0971 6.14984C13.0548 6.19024 13.0049 6.22189 12.9503 6.24298C12.8957 6.26407 12.8375 6.27419 12.779 6.27275C12.7205 6.27131 12.6629 6.25835 12.6094 6.23461C12.3848 6.13482 12.2833 5.87133 12.3829 5.64586Z" fill="black"/>
</svg>
