<svg width="15" height="15" viewBox="0 0 15 15" fill="none" xmlns="http://www.w3.org/2000/svg">
<path fill-rule="evenodd" clip-rule="evenodd" d="M7.75384 1.92887C7.59223 1.85704 7.40777 1.85704 7.24616 1.92887L1.62116 4.42887C1.39546 4.52918 1.25 4.75301 1.25 5C1.25 5.24699 1.39546 5.47082 1.62116 5.57113L3.14862 6.25L1.62116 6.92887C1.39546 7.02918 1.25 7.25301 1.25 7.5C1.25 7.74699 1.39546 7.97082 1.62116 8.07113L3.14862 8.75L1.62116 9.42887C1.39546 9.52918 1.25 9.75301 1.25 10C1.25 10.247 1.39546 10.4708 1.62116 10.5711L7.24616 13.0711C7.40777 13.143 7.59223 13.143 7.75384 13.0711L13.3788 10.5711C13.6045 10.4708 13.75 10.247 13.75 10C13.75 9.75301 13.6045 9.52918 13.3788 9.42887L11.8514 8.75L13.3788 8.07113C13.6045 7.97082 13.75 7.74699 13.75 7.5C13.75 7.25301 13.6045 7.02918 13.3788 6.92887L11.8514 6.25L13.3788 5.57113C13.6045 5.47082 13.75 5.24699 13.75 5C13.75 4.75301 13.6045 4.52918 13.3788 4.42887L7.75384 1.92887ZM10.3125 6.93395L7.75384 8.07113C7.59223 8.14296 7.40777 8.14296 7.24616 8.07113L4.6875 6.93395L3.41388 7.5L7.5 9.31605L11.5861 7.5L10.3125 6.93395ZM7.5 6.81605L3.41388 5L7.5 3.18395L11.5861 5L7.5 6.81605ZM7.75384 10.5711L10.3125 9.43395L11.5861 10L7.5 11.8161L3.41388 10L4.6875 9.43395L7.24616 10.5711C7.40777 10.643 7.59223 10.643 7.75384 10.5711Z" fill="#E535AB"/>
</svg>
