<svg width="13" height="13" viewBox="0 0 13 13" fill="none" xmlns="http://www.w3.org/2000/svg">
<path d="M0 0H13V13H0V0Z" fill="#017ACB"/>
<path d="M6.24204 4.81407H6.86563V5.89063H5.17969V10.6803L5.13501 10.6925C5.07407 10.7088 4.27172 10.7088 4.09907 10.6905L3.96094 10.6783V5.89063H2.275V4.81407L2.80922 4.80797C3.10172 4.80391 3.85329 4.80391 4.47891 4.80797C5.10454 4.81204 5.89673 4.81407 6.24204 4.81407ZM11.0013 10.1725C10.7535 10.4345 10.4874 10.5808 10.0445 10.7006C9.85158 10.7534 9.81908 10.7555 9.38439 10.7534C8.9497 10.7514 8.91517 10.7514 8.70392 10.6966C8.15751 10.5564 7.71673 10.2822 7.4161 9.89422C7.33079 9.78454 7.19063 9.55704 7.19063 9.5286C7.19063 9.52047 7.21095 9.50219 7.23735 9.49C7.26376 9.47782 7.3186 9.44329 7.36329 9.41688C7.40798 9.39047 7.48923 9.34172 7.54407 9.31329C7.59892 9.28485 7.75735 9.19141 7.89548 9.10813C8.03361 9.02485 8.15954 8.95782 8.17376 8.95782C8.18798 8.95782 8.21439 8.98625 8.2347 9.02079C8.35657 9.22594 8.64095 9.48797 8.84204 9.57735C8.96595 9.63016 9.24017 9.68907 9.3722 9.68907C9.49408 9.68907 9.71751 9.63625 9.83736 9.58141C9.96533 9.5225 10.0303 9.4636 10.1075 9.34579C10.1603 9.2625 10.1664 9.24016 10.1644 9.08172C10.1644 8.93547 10.1563 8.89485 10.1156 8.82782C10.0019 8.64094 9.84751 8.54344 9.22189 8.26719C8.57595 7.98079 8.28548 7.81016 8.04985 7.58063C7.87517 7.41 7.84064 7.36329 7.73095 7.15C7.58876 6.87579 7.57048 6.78641 7.56845 6.37813C7.56642 6.09172 7.57251 5.99829 7.60298 5.90079C7.64564 5.75454 7.78376 5.47219 7.84673 5.4011C7.97673 5.24875 8.02345 5.20204 8.11486 5.12688C8.39111 4.89938 8.82173 4.74907 9.23408 4.73485C9.28079 4.73485 9.43517 4.74297 9.57939 4.75313C9.99376 4.78766 10.2761 4.88922 10.5483 5.10657C10.7535 5.26907 11.0642 5.65094 11.0338 5.70172C11.0135 5.73219 10.203 6.2725 10.1502 6.28875C10.1177 6.29891 10.0953 6.28672 10.0506 6.23391C9.77439 5.90282 9.66267 5.83172 9.39455 5.81547C9.20361 5.80329 9.10204 5.82563 8.97408 5.91094C8.84001 6.00032 8.77501 6.13641 8.77501 6.32532C8.77704 6.60157 8.88267 6.73157 9.27267 6.92454C9.52455 7.04844 9.73986 7.15 9.75611 7.15C9.78048 7.15 10.3025 7.41 10.4386 7.49125C11.0724 7.86297 11.3303 8.24485 11.3974 8.90297C11.4461 9.3986 11.306 9.85157 11.0013 10.1725Z" fill="white"/>
</svg>
